<?xml version="1.0" encoding="us-ascii" standalone="no"?><svg xmlns="http://www.w3.org/2000/svg" xmlns:xlink="http://www.w3.org/1999/xlink" contentStyleType="text/css" height="673px" preserveAspectRatio="none" style="width:783px;height:673px;background:#FFFFFF;" version="1.1" viewBox="0 0 783 673" width="783px" zoomAndPan="magnify"><defs/><g><!--class BaseBroker--><g id="elem_BaseBroker"><rect codeLine="1" fill="#F1F1F1" height="96.8906" id="BaseBroker" rx="2.5" ry="2.5" style="stroke:#181818;stroke-width:0.5;" width="307" x="221" y="288.19"/><ellipse cx="329.75" cy="304.19" fill="#A9DCDF" rx="11" ry="11" style="stroke:#181818;stroke-width:1.0;"/><path d="M329.8594,299.5338 L328.7031,304.6119 L331.0313,304.6119 L329.8594,299.5338 Z M328.375,297.2994 L331.3594,297.2994 L334.7188,309.69 L332.2656,309.69 L331.5,306.6275 L328.2188,306.6275 L327.4688,309.69 L325.0313,309.69 L328.375,297.2994 Z " fill="#000000"/><text fill="#000000" font-family="sans-serif" font-size="14" font-style="italic" lengthAdjust="spacing" textLength="81" x="350.25" y="309.0367">BaseBroker</text><line style="stroke:#181818;stroke-width:0.5;" x1="222" x2="527" y1="320.19" y2="320.19"/><ellipse cx="232" cy="333.8384" fill="none" rx="3" ry="3" style="stroke:#038048;stroke-width:1.0;"/><text fill="#000000" font-family="sans-serif" font-size="14" lengthAdjust="spacing" textLength="187" x="241" y="337.1851">repository: BaseRepository</text><ellipse cx="232" cy="350.1353" fill="none" rx="3" ry="3" style="stroke:#038048;stroke-width:1.0;"/><text fill="#000000" font-family="sans-serif" font-size="14" lengthAdjust="spacing" textLength="281" x="241" y="353.482">registered_strategies: List[BaseStrategy]</text><line style="stroke:#181818;stroke-width:0.5;" x1="222" x2="527" y1="360.7838" y2="360.7838"/><ellipse cx="232" cy="374.4322" fill="#84BE84" rx="3" ry="3" style="stroke:#038048;stroke-width:1.0;"/><text fill="#000000" font-family="sans-serif" font-size="14" lengthAdjust="spacing" textLength="142" x="241" y="377.7789">prepare_initial_data()</text></g><!--class LiveBroker--><g id="elem_LiveBroker"><rect codeLine="7" fill="#F1F1F1" height="64.2969" id="LiveBroker" rx="2.5" ry="2.5" style="stroke:#181818;stroke-width:0.5;" width="204" x="25.5" y="469.53"/><ellipse cx="87.25" cy="485.53" fill="#ADD1B2" rx="11" ry="11" style="stroke:#181818;stroke-width:1.0;"/><path d="M90.2188,491.1706 Q89.6406,491.4675 89,491.6081 Q88.3594,491.7644 87.6563,491.7644 Q85.1563,491.7644 83.8281,490.1238 Q82.5156,488.4675 82.5156,485.3425 Q82.5156,482.2175 83.8281,480.5613 Q85.1563,478.905 87.6563,478.905 Q88.3594,478.905 89,479.0613 Q89.6563,479.2175 90.2188,479.5144 L90.2188,482.2331 Q89.5938,481.655 89,481.3894 Q88.4063,481.1081 87.7813,481.1081 Q86.4375,481.1081 85.75,482.1863 Q85.0625,483.2488 85.0625,485.3425 Q85.0625,487.4363 85.75,488.5144 Q86.4375,489.5769 87.7813,489.5769 Q88.4063,489.5769 89,489.3113 Q89.5938,489.03 90.2188,488.4519 L90.2188,491.1706 Z " fill="#000000"/><text fill="#000000" font-family="sans-serif" font-size="14" lengthAdjust="spacing" textLength="72" x="107.75" y="490.3767">LiveBroker</text><line style="stroke:#181818;stroke-width:0.5;" x1="26.5" x2="228.5" y1="501.53" y2="501.53"/><ellipse cx="36.5" cy="515.1784" fill="none" rx="3" ry="3" style="stroke:#038048;stroke-width:1.0;"/><text fill="#000000" font-family="sans-serif" font-size="14" lengthAdjust="spacing" textLength="178" x="45.5" y="518.5251">repository: LiveRepository</text><line style="stroke:#181818;stroke-width:0.5;" x1="26.5" x2="228.5" y1="525.8269" y2="525.8269"/></g><!--class BacktestBroker--><g id="elem_BacktestBroker"><rect codeLine="11" fill="#F1F1F1" height="96.8906" id="BacktestBroker" rx="2.5" ry="2.5" style="stroke:#181818;stroke-width:0.5;" width="239" x="520" y="453.23"/><ellipse cx="581.75" cy="469.23" fill="#ADD1B2" rx="11" ry="11" style="stroke:#181818;stroke-width:1.0;"/><path d="M584.7188,474.8706 Q584.1406,475.1675 583.5,475.3081 Q582.8594,475.4644 582.1563,475.4644 Q579.6563,475.4644 578.3281,473.8238 Q577.0156,472.1675 577.0156,469.0425 Q577.0156,465.9175 578.3281,464.2613 Q579.6563,462.605 582.1563,462.605 Q582.8594,462.605 583.5,462.7613 Q584.1563,462.9175 584.7188,463.2144 L584.7188,465.9331 Q584.0938,465.355 583.5,465.0894 Q582.9063,464.8081 582.2813,464.8081 Q580.9375,464.8081 580.25,465.8863 Q579.5625,466.9488 579.5625,469.0425 Q579.5625,471.1363 580.25,472.2144 Q580.9375,473.2769 582.2813,473.2769 Q582.9063,473.2769 583.5,473.0113 Q584.0938,472.73 584.7188,472.1519 L584.7188,474.8706 Z " fill="#000000"/><text fill="#000000" font-family="sans-serif" font-size="14" lengthAdjust="spacing" textLength="107" x="602.25" y="474.0767">BacktestBroker</text><line style="stroke:#181818;stroke-width:0.5;" x1="521" x2="758" y1="485.23" y2="485.23"/><ellipse cx="531" cy="498.8784" fill="none" rx="3" ry="3" style="stroke:#038048;stroke-width:1.0;"/><text fill="#000000" font-family="sans-serif" font-size="14" lengthAdjust="spacing" textLength="213" x="540" y="502.2251">repository: BacktestRepository</text><line style="stroke:#181818;stroke-width:0.5;" x1="521" x2="758" y1="509.5269" y2="509.5269"/><ellipse cx="531" cy="523.1753" fill="#84BE84" rx="3" ry="3" style="stroke:#038048;stroke-width:1.0;"/><text fill="#000000" font-family="sans-serif" font-size="14" lengthAdjust="spacing" textLength="40" x="540" y="526.522">next()</text><ellipse cx="531" cy="539.4722" fill="#84BE84" rx="3" ry="3" style="stroke:#038048;stroke-width:1.0;"/><text fill="#000000" font-family="sans-serif" font-size="14" lengthAdjust="spacing" textLength="96" x="540" y="542.8189">update_data()</text></g><!--class BaseRepository--><g id="elem_BaseRepository"><rect codeLine="17" fill="#F1F1F1" height="113.1875" id="BaseRepository" rx="2.5" ry="2.5" style="stroke:#181818;stroke-width:0.5;" width="220" x="264.5" y="445.08"/><ellipse cx="315.75" cy="461.08" fill="#A9DCDF" rx="11" ry="11" style="stroke:#181818;stroke-width:1.0;"/><path d="M315.8594,456.4238 L314.7031,461.5019 L317.0313,461.5019 L315.8594,456.4238 Z M314.375,454.1894 L317.3594,454.1894 L320.7188,466.58 L318.2656,466.58 L317.5,463.5175 L314.2188,463.5175 L313.4688,466.58 L311.0313,466.58 L314.375,454.1894 Z " fill="#000000"/><text fill="#000000" font-family="sans-serif" font-size="14" font-style="italic" lengthAdjust="spacing" textLength="109" x="336.25" y="465.9267">BaseRepository</text><line style="stroke:#181818;stroke-width:0.5;" x1="265.5" x2="483.5" y1="477.08" y2="477.08"/><ellipse cx="275.5" cy="490.7284" fill="none" rx="3" ry="3" style="stroke:#038048;stroke-width:1.0;"/><text fill="#000000" font-family="sans-serif" font-size="14" lengthAdjust="spacing" textLength="194" x="284.5" y="494.0751">symbol_ohlcv: dict[str, Data]</text><line style="stroke:#181818;stroke-width:0.5;" x1="265.5" x2="483.5" y1="501.3769" y2="501.3769"/><ellipse cx="275.5" cy="515.0253" fill="#84BE84" rx="3" ry="3" style="stroke:#038048;stroke-width:1.0;"/><text fill="#000000" font-family="sans-serif" font-size="14" lengthAdjust="spacing" textLength="97" x="284.5" y="518.372">fetch_orders()</text><ellipse cx="275.5" cy="531.3222" fill="#84BE84" rx="3" ry="3" style="stroke:#038048;stroke-width:1.0;"/><text fill="#000000" font-family="sans-serif" font-size="14" lengthAdjust="spacing" textLength="98" x="284.5" y="534.6689">create_order()</text><ellipse cx="275.5" cy="547.6191" fill="#84BE84" rx="3" ry="3" style="stroke:#038048;stroke-width:1.0;"/><text fill="#000000" font-family="sans-serif" font-size="14" lengthAdjust="spacing" textLength="99" x="284.5" y="550.9657">cancel_order()</text></g><!--class BacktestRepository--><g id="elem_BacktestRepository"><rect codeLine="24" fill="#F1F1F1" height="48" id="BacktestRepository" rx="2.5" ry="2.5" style="stroke:#181818;stroke-width:0.5;" width="167" x="398" y="618.27"/><ellipse cx="413" cy="634.27" fill="#ADD1B2" rx="11" ry="11" style="stroke:#181818;stroke-width:1.0;"/><path d="M415.9688,639.9106 Q415.3906,640.2075 414.75,640.3481 Q414.1094,640.5044 413.4063,640.5044 Q410.9063,640.5044 409.5781,638.8638 Q408.2656,637.2075 408.2656,634.0825 Q408.2656,630.9575 409.5781,629.3013 Q410.9063,627.645 413.4063,627.645 Q414.1094,627.645 414.75,627.8013 Q415.4063,627.9575 415.9688,628.2544 L415.9688,630.9731 Q415.3438,630.395 414.75,630.1294 Q414.1563,629.8481 413.5313,629.8481 Q412.1875,629.8481 411.5,630.9263 Q410.8125,631.9888 410.8125,634.0825 Q410.8125,636.1763 411.5,637.2544 Q412.1875,638.3169 413.5313,638.3169 Q414.1563,638.3169 414.75,638.0513 Q415.3438,637.77 415.9688,637.1919 L415.9688,639.9106 Z " fill="#000000"/><text fill="#000000" font-family="sans-serif" font-size="14" lengthAdjust="spacing" textLength="135" x="427" y="639.1167">BacktestRepository</text><line style="stroke:#181818;stroke-width:0.5;" x1="399" x2="564" y1="650.27" y2="650.27"/><line style="stroke:#181818;stroke-width:0.5;" x1="399" x2="564" y1="658.27" y2="658.27"/></g><!--class LiveRepository--><g id="elem_LiveRepository"><rect codeLine="27" fill="#F1F1F1" height="48" id="LiveRepository" rx="2.5" ry="2.5" style="stroke:#181818;stroke-width:0.5;" width="132" x="200.5" y="618.27"/><ellipse cx="215.5" cy="634.27" fill="#ADD1B2" rx="11" ry="11" style="stroke:#181818;stroke-width:1.0;"/><path d="M218.4688,639.9106 Q217.8906,640.2075 217.25,640.3481 Q216.6094,640.5044 215.9063,640.5044 Q213.4063,640.5044 212.0781,638.8638 Q210.7656,637.2075 210.7656,634.0825 Q210.7656,630.9575 212.0781,629.3013 Q213.4063,627.645 215.9063,627.645 Q216.6094,627.645 217.25,627.8013 Q217.9063,627.9575 218.4688,628.2544 L218.4688,630.9731 Q217.8438,630.395 217.25,630.1294 Q216.6563,629.8481 216.0313,629.8481 Q214.6875,629.8481 214,630.9263 Q213.3125,631.9888 213.3125,634.0825 Q213.3125,636.1763 214,637.2544 Q214.6875,638.3169 216.0313,638.3169 Q216.6563,638.3169 217.25,638.0513 Q217.8438,637.77 218.4688,637.1919 L218.4688,639.9106 Z " fill="#000000"/><text fill="#000000" font-family="sans-serif" font-size="14" lengthAdjust="spacing" textLength="100" x="229.5" y="639.1167">LiveRepository</text><line style="stroke:#181818;stroke-width:0.5;" x1="201.5" x2="331.5" y1="650.27" y2="650.27"/><line style="stroke:#181818;stroke-width:0.5;" x1="201.5" x2="331.5" y1="658.27" y2="658.27"/></g><!--class BaseExecutionHandler--><g id="elem_BaseExecutionHandler"><rect codeLine="30" fill="#F1F1F1" height="96.8906" id="BaseExecutionHandler" rx="2.5" ry="2.5" style="stroke:#181818;stroke-width:0.5;" width="229" x="260" y="123.15"/><ellipse cx="293.45" cy="139.15" fill="#A9DCDF" rx="11" ry="11" style="stroke:#181818;stroke-width:1.0;"/><path d="M293.5594,134.4937 L292.4031,139.5719 L294.7313,139.5719 L293.5594,134.4937 Z M292.075,132.2594 L295.0594,132.2594 L298.4188,144.65 L295.9656,144.65 L295.2,141.5875 L291.9188,141.5875 L291.1688,144.65 L288.7313,144.65 L292.075,132.2594 Z " fill="#000000"/><text fill="#000000" font-family="sans-serif" font-size="14" font-style="italic" lengthAdjust="spacing" textLength="156" x="311.55" y="143.9967">BaseExecutionHandler</text><line style="stroke:#181818;stroke-width:0.5;" x1="261" x2="488" y1="155.15" y2="155.15"/><ellipse cx="271" cy="168.7984" fill="none" rx="3" ry="3" style="stroke:#038048;stroke-width:1.0;"/><text fill="#000000" font-family="sans-serif" font-size="14" lengthAdjust="spacing" textLength="135" x="280" y="172.1451">broker: BaseBroker</text><ellipse cx="271" cy="185.0953" fill="none" rx="3" ry="3" style="stroke:#038048;stroke-width:1.0;"/><text fill="#000000" font-family="sans-serif" font-size="14" lengthAdjust="spacing" textLength="203" x="280" y="188.442">strategies: List[BaseStrategy]</text><line style="stroke:#181818;stroke-width:0.5;" x1="261" x2="488" y1="195.7437" y2="195.7437"/><ellipse cx="271" cy="209.3922" fill="#84BE84" rx="3" ry="3" style="stroke:#038048;stroke-width:1.0;"/><text fill="#000000" font-family="sans-serif" font-size="14" lengthAdjust="spacing" textLength="33" x="280" y="212.7389">run()</text></g><!--class BacktestExecutionHandler--><g id="elem_BacktestExecutionHandler"><rect codeLine="36" fill="#F1F1F1" height="64.2969" id="BacktestExecutionHandler" rx="2.5" ry="2.5" style="stroke:#181818;stroke-width:0.5;" width="214" x="562.5" y="304.49"/><ellipse cx="577.5" cy="320.49" fill="#ADD1B2" rx="11" ry="11" style="stroke:#181818;stroke-width:1.0;"/><path d="M580.4688,326.1306 Q579.8906,326.4275 579.25,326.5681 Q578.6094,326.7244 577.9063,326.7244 Q575.4063,326.7244 574.0781,325.0838 Q572.7656,323.4275 572.7656,320.3025 Q572.7656,317.1775 574.0781,315.5213 Q575.4063,313.865 577.9063,313.865 Q578.6094,313.865 579.25,314.0213 Q579.9063,314.1775 580.4688,314.4744 L580.4688,317.1931 Q579.8438,316.615 579.25,316.3494 Q578.6563,316.0681 578.0313,316.0681 Q576.6875,316.0681 576,317.1463 Q575.3125,318.2088 575.3125,320.3025 Q575.3125,322.3963 576,323.4744 Q576.6875,324.5369 578.0313,324.5369 Q578.6563,324.5369 579.25,324.2713 Q579.8438,323.99 580.4688,323.4119 L580.4688,326.1306 Z " fill="#000000"/><text fill="#000000" font-family="sans-serif" font-size="14" lengthAdjust="spacing" textLength="182" x="591.5" y="325.3367">BacktestExecutionHandler</text><line style="stroke:#181818;stroke-width:0.5;" x1="563.5" x2="775.5" y1="336.49" y2="336.49"/><ellipse cx="573.5" cy="350.1384" fill="none" rx="3" ry="3" style="stroke:#038048;stroke-width:1.0;"/><text fill="#000000" font-family="sans-serif" font-size="14" lengthAdjust="spacing" textLength="161" x="582.5" y="353.4851">broker: BacktestBroker</text><line style="stroke:#181818;stroke-width:0.5;" x1="563.5" x2="775.5" y1="360.7869" y2="360.7869"/></g><!--class LiveExecutionHandler--><g id="elem_LiveExecutionHandler"><rect codeLine="40" fill="#F1F1F1" height="64.2969" id="LiveExecutionHandler" rx="2.5" ry="2.5" style="stroke:#181818;stroke-width:0.5;" width="179" x="7" y="304.49"/><ellipse cx="22" cy="320.49" fill="#ADD1B2" rx="11" ry="11" style="stroke:#181818;stroke-width:1.0;"/><path d="M24.9688,326.1306 Q24.3906,326.4275 23.75,326.5681 Q23.1094,326.7244 22.4063,326.7244 Q19.9063,326.7244 18.5781,325.0838 Q17.2656,323.4275 17.2656,320.3025 Q17.2656,317.1775 18.5781,315.5213 Q19.9063,313.865 22.4063,313.865 Q23.1094,313.865 23.75,314.0213 Q24.4063,314.1775 24.9688,314.4744 L24.9688,317.1931 Q24.3438,316.615 23.75,316.3494 Q23.1563,316.0681 22.5313,316.0681 Q21.1875,316.0681 20.5,317.1463 Q19.8125,318.2088 19.8125,320.3025 Q19.8125,322.3963 20.5,323.4744 Q21.1875,324.5369 22.5313,324.5369 Q23.1563,324.5369 23.75,324.2713 Q24.3438,323.99 24.9688,323.4119 L24.9688,326.1306 Z " fill="#000000"/><text fill="#000000" font-family="sans-serif" font-size="14" lengthAdjust="spacing" textLength="147" x="36" y="325.3367">LiveExecutionHandler</text><line style="stroke:#181818;stroke-width:0.5;" x1="8" x2="185" y1="336.49" y2="336.49"/><ellipse cx="18" cy="350.1384" fill="none" rx="3" ry="3" style="stroke:#038048;stroke-width:1.0;"/><text fill="#000000" font-family="sans-serif" font-size="14" lengthAdjust="spacing" textLength="126" x="27" y="353.4851">broker: LiveBroker</text><line style="stroke:#181818;stroke-width:0.5;" x1="8" x2="185" y1="360.7869" y2="360.7869"/></g><!--class BaseStrategy--><g id="elem_BaseStrategy"><rect codeLine="44" fill="#F1F1F1" height="113.1875" id="BaseStrategy" rx="2.5" ry="2.5" style="stroke:#181818;stroke-width:0.5;" width="161" x="524" y="115"/><ellipse cx="555.65" cy="131" fill="#A9DCDF" rx="11" ry="11" style="stroke:#181818;stroke-width:1.0;"/><path d="M555.7594,126.3438 L554.6031,131.4219 L556.9313,131.4219 L555.7594,126.3438 Z M554.275,124.1094 L557.2594,124.1094 L560.6188,136.5 L558.1656,136.5 L557.4,133.4375 L554.1188,133.4375 L553.3688,136.5 L550.9313,136.5 L554.275,124.1094 Z " fill="#000000"/><text fill="#000000" font-family="sans-serif" font-size="14" font-style="italic" lengthAdjust="spacing" textLength="92" x="573.35" y="135.8467">BaseStrategy</text><line style="stroke:#181818;stroke-width:0.5;" x1="525" x2="684" y1="147" y2="147"/><ellipse cx="535" cy="160.6484" fill="none" rx="3" ry="3" style="stroke:#038048;stroke-width:1.0;"/><text fill="#000000" font-family="sans-serif" font-size="14" lengthAdjust="spacing" textLength="76" x="544" y="163.9951">symbol: str</text><ellipse cx="535" cy="176.9453" fill="none" rx="3" ry="3" style="stroke:#038048;stroke-width:1.0;"/><text fill="#000000" font-family="sans-serif" font-size="14" lengthAdjust="spacing" textLength="135" x="544" y="180.292">broker: BaseBroker</text><line style="stroke:#181818;stroke-width:0.5;" x1="525" x2="684" y1="187.5938" y2="187.5938"/><ellipse cx="535" cy="201.2422" fill="#84BE84" rx="3" ry="3" style="stroke:#038048;stroke-width:1.0;"/><text fill="#000000" font-family="sans-serif" font-size="14" lengthAdjust="spacing" textLength="50" x="544" y="204.5889">setup()</text><ellipse cx="535" cy="217.5391" fill="#84BE84" rx="3" ry="3" style="stroke:#038048;stroke-width:1.0;"/><text fill="#000000" font-family="sans-serif" font-size="14" lengthAdjust="spacing" textLength="40" x="544" y="220.8857">next()</text></g><!--class VolatilityBreakout--><g id="elem_VolatilityBreakout"><rect codeLine="51" fill="#F1F1F1" height="48" id="VolatilityBreakout" rx="2.5" ry="2.5" style="stroke:#181818;stroke-width:0.5;" width="150" x="445.5" y="7"/><ellipse cx="460.5" cy="23" fill="#ADD1B2" rx="11" ry="11" style="stroke:#181818;stroke-width:1.0;"/><path d="M463.4688,28.6406 Q462.8906,28.9375 462.25,29.0781 Q461.6094,29.2344 460.9063,29.2344 Q458.4063,29.2344 457.0781,27.5938 Q455.7656,25.9375 455.7656,22.8125 Q455.7656,19.6875 457.0781,18.0313 Q458.4063,16.375 460.9063,16.375 Q461.6094,16.375 462.25,16.5313 Q462.9063,16.6875 463.4688,16.9844 L463.4688,19.7031 Q462.8438,19.125 462.25,18.8594 Q461.6563,18.5781 461.0313,18.5781 Q459.6875,18.5781 459,19.6563 Q458.3125,20.7188 458.3125,22.8125 Q458.3125,24.9063 459,25.9844 Q459.6875,27.0469 461.0313,27.0469 Q461.6563,27.0469 462.25,26.7813 Q462.8438,26.5 463.4688,25.9219 L463.4688,28.6406 Z " fill="#000000"/><text fill="#000000" font-family="sans-serif" font-size="14" lengthAdjust="spacing" textLength="118" x="474.5" y="27.8467">VolatilityBreakout</text><line style="stroke:#181818;stroke-width:0.5;" x1="446.5" x2="594.5" y1="39" y2="39"/><line style="stroke:#181818;stroke-width:0.5;" x1="446.5" x2="594.5" y1="47" y2="47"/></g><!--class RandomBuy--><g id="elem_RandomBuy"><rect codeLine="53" fill="#F1F1F1" height="48" id="RandomBuy" rx="2.5" ry="2.5" style="stroke:#181818;stroke-width:0.5;" width="116" x="630.5" y="7"/><ellipse cx="645.5" cy="23" fill="#ADD1B2" rx="11" ry="11" style="stroke:#181818;stroke-width:1.0;"/><path d="M648.4688,28.6406 Q647.8906,28.9375 647.25,29.0781 Q646.6094,29.2344 645.9063,29.2344 Q643.4063,29.2344 642.0781,27.5938 Q640.7656,25.9375 640.7656,22.8125 Q640.7656,19.6875 642.0781,18.0313 Q643.4063,16.375 645.9063,16.375 Q646.6094,16.375 647.25,16.5313 Q647.9063,16.6875 648.4688,16.9844 L648.4688,19.7031 Q647.8438,19.125 647.25,18.8594 Q646.6563,18.5781 646.0313,18.5781 Q644.6875,18.5781 644,19.6563 Q643.3125,20.7188 643.3125,22.8125 Q643.3125,24.9063 644,25.9844 Q644.6875,27.0469 646.0313,27.0469 Q646.6563,27.0469 647.25,26.7813 Q647.8438,26.5 648.4688,25.9219 L648.4688,28.6406 Z " fill="#000000"/><text fill="#000000" font-family="sans-serif" font-size="14" lengthAdjust="spacing" textLength="84" x="659.5" y="27.8467">RandomBuy</text><line style="stroke:#181818;stroke-width:0.5;" x1="631.5" x2="745.5" y1="39" y2="39"/><line style="stroke:#181818;stroke-width:0.5;" x1="631.5" x2="745.5" y1="47" y2="47"/></g><!--reverse link BaseBroker to LiveBroker--><g id="link_BaseBroker_LiveBroker"><path d="M284.6,396.98 C247.63,421.38 206.32,448.65 175.34,469.1 " fill="none" id="BaseBroker-backto-LiveBroker" style="stroke:#181818;stroke-width:1.0;"/><polygon fill="none" points="280.51,390.63,301.06,385.45,288.23,402.31,280.51,390.63" style="stroke:#181818;stroke-width:1.0;"/></g><!--reverse link BaseBroker to BacktestBroker--><g id="link_BaseBroker_BacktestBroker"><path d="M470.06,396.43 C500.18,414.96 533.07,435.19 561.78,452.86 " fill="none" id="BaseBroker-backto-BacktestBroker" style="stroke:#181818;stroke-width:1.0;"/><polygon fill="none" points="466.58,401.89,453.22,385.45,473.92,389.97,466.58,401.89" style="stroke:#181818;stroke-width:1.0;"/></g><!--reverse link BaseRepository to BacktestRepository--><g id="link_BaseRepository_BacktestRepository"><path d="M430.25,574.88 C442.32,590.52 454.24,605.96 463.54,618.01 " fill="none" id="BaseRepository-backto-BacktestRepository" style="stroke:#181818;stroke-width:1.0;"/><polygon fill="none" points="424.39,579.76,417.71,559.65,435.48,571.2,424.39,579.76" style="stroke:#181818;stroke-width:1.0;"/></g><!--reverse link BaseRepository to LiveRepository--><g id="link_BaseRepository_LiveRepository"><path d="M318.23,574.88 C306.05,590.52 294.02,605.96 284.63,618.01 " fill="none" id="BaseRepository-backto-LiveRepository" style="stroke:#181818;stroke-width:1.0;"/><polygon fill="none" points="313.07,571.12,330.88,559.65,324.11,579.73,313.07,571.12" style="stroke:#181818;stroke-width:1.0;"/></g><!--reverse link BaseExecutionHandler to BacktestExecutionHandler--><g id="link_BaseExecutionHandler_BacktestExecutionHandler"><path d="M479.17,230.45 C524,255.22 574.61,283.19 612.37,304.06 " fill="none" id="BaseExecutionHandler-backto-BacktestExecutionHandler" style="stroke:#181818;stroke-width:1.0;"/><polygon fill="none" points="476.13,236.21,462.02,220.41,482.91,223.96,476.13,236.21" style="stroke:#181818;stroke-width:1.0;"/></g><!--reverse link BaseExecutionHandler to LiveExecutionHandler--><g id="link_BaseExecutionHandler_LiveExecutionHandler"><path d="M275.02,230.94 C232.98,255.6 185.68,283.33 150.34,304.06 " fill="none" id="BaseExecutionHandler-backto-LiveExecutionHandler" style="stroke:#181818;stroke-width:1.0;"/><polygon fill="none" points="271.18,224.49,291.97,220.41,278.26,236.57,271.18,224.49" style="stroke:#181818;stroke-width:1.0;"/></g><!--link VolatilityBreakout to BaseStrategy--><g id="link_VolatilityBreakout_BaseStrategy"><path codeLine="56" d="M534.56,55.2 C541.64,66.89 550.67,81.78 559.86,96.94 " fill="none" id="VolatilityBreakout-to-BaseStrategy" style="stroke:#181818;stroke-width:1.0;"/><polygon fill="none" points="566.24,92.97,570.62,113.7,554.27,100.23,566.24,92.97" style="stroke:#181818;stroke-width:1.0;"/></g><!--link RandomBuy to BaseStrategy--><g id="link_RandomBuy_BaseStrategy"><path codeLine="57" d="M674.44,55.2 C667.36,66.89 658.33,81.78 649.14,96.94 " fill="none" id="RandomBuy-to-BaseStrategy" style="stroke:#181818;stroke-width:1.0;"/><polygon fill="none" points="654.73,100.23,638.38,113.7,642.76,92.97,654.73,100.23" style="stroke:#181818;stroke-width:1.0;"/></g><!--reverse link BacktestBroker to BacktestRepository--><g id="link_BacktestBroker_BacktestRepository"><path codeLine="59" d="M574.88,559.36 C551.47,579.9 526.31,601.96 508.02,618.01 " fill="none" id="BacktestBroker-backto-BacktestRepository" style="stroke:#181818;stroke-width:1.0;"/><polygon fill="#181818" points="584.13,550.37,576.981,551.3144,575.1032,558.2767,582.2522,557.3323,584.13,550.37" style="stroke:#181818;stroke-width:1.0;"/></g><!--reverse link LiveBroker to LiveRepository--><g id="link_LiveBroker_LiveRepository"><path codeLine="60" d="M168.75,543.81 C193.1,568.09 223.03,597.93 243.31,618.15 " fill="none" id="LiveBroker-backto-LiveRepository" style="stroke:#181818;stroke-width:1.0;"/><polygon fill="#181818" points="160.04,535.13,161.4652,542.1989,168.5384,543.6021,167.1133,536.5332,160.04,535.13" style="stroke:#181818;stroke-width:1.0;"/></g><!--reverse link BacktestExecutionHandler to BacktestBroker--><g id="link_BacktestExecutionHandler_BacktestBroker"><path codeLine="62" d="M661.21,382.7 C657.19,404.54 652.36,430.78 648.28,452.96 " fill="none" id="BacktestExecutionHandler-backto-BacktestBroker" style="stroke:#181818;stroke-width:1.0;"/><polygon fill="#181818" points="663.72,370.07,658.6985,375.2454,661.5444,381.8711,666.5659,376.6958,663.72,370.07" style="stroke:#181818;stroke-width:1.0;"/></g><!--reverse link LiveExecutionHandler to LiveBroker--><g id="link_LiveExecutionHandler_LiveBroker"><path codeLine="63" d="M105.07,382.7 C110.28,410.13 116.82,444.5 121.49,469.06 " fill="none" id="LiveExecutionHandler-backto-LiveBroker" style="stroke:#181818;stroke-width:1.0;"/><polygon fill="#181818" points="102.48,370.07,99.6713,376.7116,104.7217,381.8588,107.5304,375.2171,102.48,370.07" style="stroke:#181818;stroke-width:1.0;"/></g><!--reverse link BaseExecutionHandler to BaseBroker--><g id="link_BaseExecutionHandler_BaseBroker"><path codeLine="65" d="M374.5,234.07 C374.5,251.81 374.5,270.91 374.5,287.7 " fill="none" id="BaseExecutionHandler-backto-BaseBroker" style="stroke:#181818;stroke-width:1.0;"/><polygon fill="#181818" points="374.5,221.19,370.5,227.19,374.5,233.19,378.5,227.19,374.5,221.19" style="stroke:#181818;stroke-width:1.0;"/></g><!--reverse link BaseBroker to BaseRepository--><g id="link_BaseBroker_BaseRepository"><path codeLine="66" d="M374.5,399.19 C374.5,414.12 374.5,430.01 374.5,444.67 " fill="none" id="BaseBroker-backto-BaseRepository" style="stroke:#181818;stroke-width:1.0;"/><polygon fill="#181818" points="374.5,386.23,370.5,392.23,374.5,398.23,378.5,392.23,374.5,386.23" style="stroke:#181818;stroke-width:1.0;"/></g><!--link BaseExecutionHandler to BaseStrategy--><g id="link_BaseExecutionHandler_BaseStrategy"><path codeLine="68" d="M489.5,171.6 C497.95,171.6 506.39,171.6 514.84,171.6 " fill="none" id="BaseExecutionHandler-to-BaseStrategy" style="stroke:#181818;stroke-width:1.0;"/><line style="stroke:#181818;stroke-width:1.0;" x1="514.64" x2="522.64" y1="171.6" y2="163.6"/><line style="stroke:#181818;stroke-width:1.0;" x1="514.64" x2="522.64" y1="171.6" y2="179.6"/><line style="stroke:#181818;stroke-width:1.0;" x1="514.64" x2="522.64" y1="171.6" y2="171.6"/></g><!--SRC=[fLFBReCm43pNN-5ZN_m0XnvGA_MGKohr4bN8CTl4YeEHlKH1QV-zDWPYWfEqwWtsCJipwsLBWvfnf5moOsZ636HQRK3J0xbve1egPGGgtQHjRZxy- -nA60GDHUvGqFw2IUdC1XUk-iq7cmzNN5aifY4NfK31P5umPBTtv9iGFtecTlres2EKnMKshZnWCy1aZ6yG3Fu1gcyPYojjg-Ldl-hASeM0C9kQTkpr-ARPBfNCrLhoNKeBmN5XUnxfimLfxVW4vEjSwGAqyMEu1ZUc3NKHLdAGGsIYCHWQwXnn6VdxouQ8lfSzy1g5AbzPMSZUnMNhQ1gussg_-XPqNSRqJ8Q49Ayn2DS-LlqFsEEZFEDBBolSUkeSk60FO5tv1NTlR63xhYH38GKscNqC6rLZkn2Vd5k2QflLtP8YjKdozJHYHOuzqnmvEPNx98cTGd2NhkBaxiZPtOLmdVZeCdhGheP4b-B11XU3Q-upOquHY4IBrHgJmyY47m00]--></g></svg>
