<?xml version="1.0" encoding="us-ascii" standalone="no"?><svg xmlns="http://www.w3.org/2000/svg" xmlns:xlink="http://www.w3.org/1999/xlink" contentStyleType="text/css" height="806px" preserveAspectRatio="none" style="width:1145px;height:806px;background:#FFFFFF;" version="1.1" viewBox="0 0 1145 806" width="1145px" zoomAndPan="magnify"><defs/><g><line style="stroke:#181818;stroke-width:0.5;stroke-dasharray:5.0,5.0;" x1="24" x2="24" y1="81.2969" y2="726.0859"/><line style="stroke:#181818;stroke-width:0.5;stroke-dasharray:5.0,5.0;" x1="158.5" x2="158.5" y1="81.2969" y2="726.0859"/><line style="stroke:#181818;stroke-width:0.5;stroke-dasharray:5.0,5.0;" x1="384" x2="384" y1="81.2969" y2="726.0859"/><line style="stroke:#181818;stroke-width:0.5;stroke-dasharray:5.0,5.0;" x1="506" x2="506" y1="81.2969" y2="726.0859"/><line style="stroke:#181818;stroke-width:0.5;stroke-dasharray:5.0,5.0;" x1="663.5" x2="663.5" y1="81.2969" y2="726.0859"/><line style="stroke:#181818;stroke-width:0.5;stroke-dasharray:5.0,5.0;" x1="827" x2="827" y1="81.2969" y2="726.0859"/><line style="stroke:#181818;stroke-width:0.5;stroke-dasharray:5.0,5.0;" x1="971" x2="971" y1="81.2969" y2="726.0859"/><line style="stroke:#181818;stroke-width:0.5;stroke-dasharray:5.0,5.0;" x1="1093" x2="1093" y1="81.2969" y2="726.0859"/><text fill="#000000" font-family="sans-serif" font-size="14" lengthAdjust="spacing" textLength="32" x="5" y="77.9951">User</text><ellipse cx="24" cy="13.5" fill="#E2E2F0" rx="8" ry="8" style="stroke:#181818;stroke-width:0.5;"/><path d="M24,21.5 L24,48.5 M11,29.5 L37,29.5 M24,48.5 L11,63.5 M24,48.5 L37,63.5 " fill="none" style="stroke:#181818;stroke-width:0.5;"/><text fill="#000000" font-family="sans-serif" font-size="14" lengthAdjust="spacing" textLength="32" x="5" y="738.0811">User</text><ellipse cx="24" cy="749.8828" fill="#E2E2F0" rx="8" ry="8" style="stroke:#181818;stroke-width:0.5;"/><path d="M24,757.8828 L24,784.8828 M11,765.8828 L37,765.8828 M24,784.8828 L11,799.8828 M24,784.8828 L37,799.8828 " fill="none" style="stroke:#181818;stroke-width:0.5;"/><rect fill="#E2E2F0" height="30.2969" rx="2.5" ry="2.5" style="stroke:#181818;stroke-width:0.5;" width="107" x="105.5" y="50"/><text fill="#000000" font-family="sans-serif" font-size="14" lengthAdjust="spacing" textLength="93" x="112.5" y="69.9951">Telegram Bot</text><rect fill="#E2E2F0" height="30.2969" rx="2.5" ry="2.5" style="stroke:#181818;stroke-width:0.5;" width="107" x="105.5" y="725.0859"/><text fill="#000000" font-family="sans-serif" font-size="14" lengthAdjust="spacing" textLength="93" x="112.5" y="745.0811">Telegram Bot</text><rect fill="#E2E2F0" height="30.2969" rx="2.5" ry="2.5" style="stroke:#181818;stroke-width:0.5;" width="96" x="336" y="50"/><text fill="#000000" font-family="sans-serif" font-size="14" lengthAdjust="spacing" textLength="82" x="343" y="69.9951">RPC Worker</text><rect fill="#E2E2F0" height="30.2969" rx="2.5" ry="2.5" style="stroke:#181818;stroke-width:0.5;" width="96" x="336" y="725.0859"/><text fill="#000000" font-family="sans-serif" font-size="14" lengthAdjust="spacing" textLength="82" x="343" y="745.0811">RPC Worker</text><rect fill="#E2E2F0" height="30.2969" rx="2.5" ry="2.5" style="stroke:#181818;stroke-width:0.5;" width="129" x="442" y="50"/><text fill="#000000" font-family="sans-serif" font-size="14" lengthAdjust="spacing" textLength="115" x="449" y="69.9951">RabbitMQ Server</text><rect fill="#E2E2F0" height="30.2969" rx="2.5" ry="2.5" style="stroke:#181818;stroke-width:0.5;" width="129" x="442" y="725.0859"/><text fill="#000000" font-family="sans-serif" font-size="14" lengthAdjust="spacing" textLength="115" x="449" y="745.0811">RabbitMQ Server</text><rect fill="#E2E2F0" height="30.2969" rx="2.5" ry="2.5" style="stroke:#181818;stroke-width:0.5;" width="130" x="598.5" y="50"/><text fill="#000000" font-family="sans-serif" font-size="14" lengthAdjust="spacing" textLength="116" x="605.5" y="69.9951">Trader Container</text><rect fill="#E2E2F0" height="30.2969" rx="2.5" ry="2.5" style="stroke:#181818;stroke-width:0.5;" width="130" x="598.5" y="725.0859"/><text fill="#000000" font-family="sans-serif" font-size="14" lengthAdjust="spacing" textLength="116" x="605.5" y="745.0811">Trader Container</text><text fill="#000000" font-family="sans-serif" font-size="14" lengthAdjust="spacing" textLength="139" x="755" y="77.9951">RabbitMQ Exchange</text><path d="M809.5,29 C809.5,19 827.5,19 827.5,19 C827.5,19 845.5,19 845.5,29 L845.5,55 C845.5,65 827.5,65 827.5,65 C827.5,65 809.5,65 809.5,55 L809.5,29 " fill="#E2E2F0" style="stroke:#181818;stroke-width:1.5;"/><path d="M809.5,29 C809.5,39 827.5,39 827.5,39 C827.5,39 845.5,39 845.5,29 " fill="none" style="stroke:#181818;stroke-width:1.5;"/><text fill="#000000" font-family="sans-serif" font-size="14" lengthAdjust="spacing" textLength="139" x="755" y="738.0811">RabbitMQ Exchange</text><path d="M809.5,751.3828 C809.5,741.3828 827.5,741.3828 827.5,741.3828 C827.5,741.3828 845.5,741.3828 845.5,751.3828 L845.5,777.3828 C845.5,787.3828 827.5,787.3828 827.5,787.3828 C827.5,787.3828 809.5,787.3828 809.5,777.3828 L809.5,751.3828 " fill="#E2E2F0" style="stroke:#181818;stroke-width:1.5;"/><path d="M809.5,751.3828 C809.5,761.3828 827.5,761.3828 827.5,761.3828 C827.5,761.3828 845.5,761.3828 845.5,751.3828 " fill="none" style="stroke:#181818;stroke-width:1.5;"/><text fill="#000000" font-family="sans-serif" font-size="14" lengthAdjust="spacing" textLength="116" x="910" y="77.9951">Telegram Queue</text><path d="M953,29 C953,19 971,19 971,19 C971,19 989,19 989,29 L989,55 C989,65 971,65 971,65 C971,65 953,65 953,55 L953,29 " fill="#E2E2F0" style="stroke:#181818;stroke-width:1.5;"/><path d="M953,29 C953,39 971,39 971,39 C971,39 989,39 989,29 " fill="none" style="stroke:#181818;stroke-width:1.5;"/><text fill="#000000" font-family="sans-serif" font-size="14" lengthAdjust="spacing" textLength="116" x="910" y="738.0811">Telegram Queue</text><path d="M953,751.3828 C953,741.3828 971,741.3828 971,741.3828 C971,741.3828 989,741.3828 989,751.3828 L989,777.3828 C989,787.3828 971,787.3828 971,787.3828 C971,787.3828 953,787.3828 953,777.3828 L953,751.3828 " fill="#E2E2F0" style="stroke:#181818;stroke-width:1.5;"/><path d="M953,751.3828 C953,761.3828 971,761.3828 971,761.3828 C971,761.3828 989,761.3828 989,751.3828 " fill="none" style="stroke:#181818;stroke-width:1.5;"/><text fill="#000000" font-family="sans-serif" font-size="14" lengthAdjust="spacing" textLength="96" x="1042" y="77.9951">Trader Queue</text><path d="M1075,29 C1075,19 1093,19 1093,19 C1093,19 1111,19 1111,29 L1111,55 C1111,65 1093,65 1093,65 C1093,65 1075,65 1075,55 L1075,29 " fill="#E2E2F0" style="stroke:#181818;stroke-width:1.5;"/><path d="M1075,29 C1075,39 1093,39 1093,39 C1093,39 1111,39 1111,29 " fill="none" style="stroke:#181818;stroke-width:1.5;"/><text fill="#000000" font-family="sans-serif" font-size="14" lengthAdjust="spacing" textLength="96" x="1042" y="738.0811">Trader Queue</text><path d="M1075,751.3828 C1075,741.3828 1093,741.3828 1093,741.3828 C1093,741.3828 1111,741.3828 1111,751.3828 L1111,777.3828 C1111,787.3828 1093,787.3828 1093,787.3828 C1093,787.3828 1075,787.3828 1075,777.3828 L1075,751.3828 " fill="#E2E2F0" style="stroke:#181818;stroke-width:1.5;"/><path d="M1075,751.3828 C1075,761.3828 1093,761.3828 1093,761.3828 C1093,761.3828 1111,761.3828 1111,751.3828 " fill="none" style="stroke:#181818;stroke-width:1.5;"/><polygon fill="#181818" points="147,108.4297,157,112.4297,147,116.4297,151,112.4297" style="stroke:#181818;stroke-width:1.0;"/><line style="stroke:#181818;stroke-width:1.0;" x1="24" x2="153" y1="112.4297" y2="112.4297"/><text fill="#000000" font-family="sans-serif" font-size="13" lengthAdjust="spacing" textLength="49" x="31" y="107.3638">Interact</text><polygon fill="#181818" points="372,137.5625,382,141.5625,372,145.5625,376,141.5625" style="stroke:#181818;stroke-width:1.0;"/><line style="stroke:#181818;stroke-width:1.0;" x1="159" x2="378" y1="141.5625" y2="141.5625"/><text fill="#000000" font-family="sans-serif" font-size="13" lengthAdjust="spacing" textLength="201" x="166" y="136.4966">Perform Remote Procedure Call</text><polygon fill="#181818" points="651.5,166.6953,661.5,170.6953,651.5,174.6953,655.5,170.6953" style="stroke:#181818;stroke-width:1.0;"/><line style="stroke:#181818;stroke-width:1.0;" x1="384" x2="657.5" y1="170.6953" y2="170.6953"/><text fill="#000000" font-family="sans-serif" font-size="13" lengthAdjust="spacing" textLength="153" x="391" y="165.6294">Spawn Trader Container</text><polygon fill="#181818" points="494.5,195.8281,504.5,199.8281,494.5,203.8281,498.5,199.8281" style="stroke:#181818;stroke-width:1.0;"/><line style="stroke:#181818;stroke-width:1.0;" x1="159" x2="500.5" y1="199.8281" y2="199.8281"/><text fill="#000000" font-family="sans-serif" font-size="13" lengthAdjust="spacing" textLength="133" x="166" y="194.7622">Establish Connection</text><polygon fill="#181818" points="517.5,224.9609,507.5,228.9609,517.5,232.9609,513.5,228.9609" style="stroke:#181818;stroke-width:1.0;"/><line style="stroke:#181818;stroke-width:1.0;" x1="511.5" x2="662.5" y1="228.9609" y2="228.9609"/><text fill="#000000" font-family="sans-serif" font-size="13" lengthAdjust="spacing" textLength="133" x="523.5" y="223.895">Establish Connection</text><polygon fill="#181818" points="815.5,254.0938,825.5,258.0938,815.5,262.0938,819.5,258.0938" style="stroke:#181818;stroke-width:1.0;"/><line style="stroke:#181818;stroke-width:1.0;" x1="506.5" x2="821.5" y1="258.0938" y2="258.0938"/><text fill="#000000" font-family="sans-serif" font-size="13" lengthAdjust="spacing" textLength="297" x="513.5" y="253.0278">Create Per-User Exchange with Hashed Secret</text><polygon fill="#181818" points="959,283.2266,969,287.2266,959,291.2266,963,287.2266" style="stroke:#181818;stroke-width:1.0;"/><line style="stroke:#181818;stroke-width:1.0;" x1="827.5" x2="965" y1="287.2266" y2="287.2266"/><text fill="#000000" font-family="sans-serif" font-size="13" lengthAdjust="spacing" textLength="95" x="834.5" y="282.1606">Declare Queue</text><polygon fill="#181818" points="1081,312.3594,1091,316.3594,1081,320.3594,1085,316.3594" style="stroke:#181818;stroke-width:1.0;"/><line style="stroke:#181818;stroke-width:1.0;" x1="827.5" x2="1087" y1="316.3594" y2="316.3594"/><text fill="#000000" font-family="sans-serif" font-size="13" lengthAdjust="spacing" textLength="95" x="834.5" y="311.2935">Declare Queue</text><polygon fill="#181818" points="815.5,341.4922,825.5,345.4922,815.5,349.4922,819.5,345.4922" style="stroke:#181818;stroke-width:1.0;"/><line style="stroke:#181818;stroke-width:1.0;" x1="663.5" x2="821.5" y1="345.4922" y2="345.4922"/><text fill="#000000" font-family="sans-serif" font-size="13" lengthAdjust="spacing" textLength="106" x="670.5" y="340.4263">Publish Message</text><polygon fill="#181818" points="959,370.625,969,374.625,959,378.625,963,374.625" style="stroke:#181818;stroke-width:1.0;"/><line style="stroke:#181818;stroke-width:1.0;" x1="827.5" x2="965" y1="374.625" y2="374.625"/><text fill="#000000" font-family="sans-serif" font-size="13" lengthAdjust="spacing" textLength="98" x="834.5" y="369.5591">Route Message</text><polygon fill="#181818" points="170,399.7578,160,403.7578,170,407.7578,166,403.7578" style="stroke:#181818;stroke-width:1.0;"/><line style="stroke:#181818;stroke-width:1.0;" x1="164" x2="970" y1="403.7578" y2="403.7578"/><text fill="#000000" font-family="sans-serif" font-size="13" lengthAdjust="spacing" textLength="110" x="176" y="398.6919">Receive Message</text><polygon fill="#181818" points="35,428.8906,25,432.8906,35,436.8906,31,432.8906" style="stroke:#181818;stroke-width:1.0;"/><line style="stroke:#181818;stroke-width:1.0;" x1="29" x2="158" y1="432.8906" y2="432.8906"/><text fill="#000000" font-family="sans-serif" font-size="13" lengthAdjust="spacing" textLength="111" x="41" y="427.8247">Forward Message</text><polygon fill="#181818" points="147,458.0234,157,462.0234,147,466.0234,151,462.0234" style="stroke:#181818;stroke-width:1.0;"/><line style="stroke:#181818;stroke-width:1.0;" x1="24" x2="153" y1="462.0234" y2="462.0234"/><text fill="#000000" font-family="sans-serif" font-size="13" lengthAdjust="spacing" textLength="104" x="31" y="456.9575">Send Command</text><polygon fill="#181818" points="815.5,487.1563,825.5,491.1563,815.5,495.1563,819.5,491.1563" style="stroke:#181818;stroke-width:1.0;"/><line style="stroke:#181818;stroke-width:1.0;" x1="159" x2="821.5" y1="491.1563" y2="491.1563"/><text fill="#000000" font-family="sans-serif" font-size="13" lengthAdjust="spacing" textLength="116" x="166" y="486.0903">Publish Command</text><polygon fill="#181818" points="1081,516.2891,1091,520.2891,1081,524.2891,1085,520.2891" style="stroke:#181818;stroke-width:1.0;"/><line style="stroke:#181818;stroke-width:1.0;" x1="827.5" x2="1087" y1="520.2891" y2="520.2891"/><text fill="#000000" font-family="sans-serif" font-size="13" lengthAdjust="spacing" textLength="108" x="834.5" y="515.2231">Route Command</text><polygon fill="#181818" points="674.5,545.4219,664.5,549.4219,674.5,553.4219,670.5,549.4219" style="stroke:#181818;stroke-width:1.0;"/><line style="stroke:#181818;stroke-width:1.0;" x1="668.5" x2="1092" y1="549.4219" y2="549.4219"/><text fill="#000000" font-family="sans-serif" font-size="13" lengthAdjust="spacing" textLength="120" x="680.5" y="544.356">Receive Command</text><line style="stroke:#181818;stroke-width:1.0;" x1="663.5" x2="705.5" y1="578.5547" y2="578.5547"/><line style="stroke:#181818;stroke-width:1.0;" x1="705.5" x2="705.5" y1="578.5547" y2="591.5547"/><line style="stroke:#181818;stroke-width:1.0;" x1="664.5" x2="705.5" y1="591.5547" y2="591.5547"/><polygon fill="#181818" points="674.5,587.5547,664.5,591.5547,674.5,595.5547,670.5,591.5547" style="stroke:#181818;stroke-width:1.0;"/><text fill="#000000" font-family="sans-serif" font-size="13" lengthAdjust="spacing" textLength="122" x="670.5" y="573.4888">Execute Command</text><polygon fill="#181818" points="815.5,616.6875,825.5,620.6875,815.5,624.6875,819.5,620.6875" style="stroke:#181818;stroke-width:1.0;"/><line style="stroke:#181818;stroke-width:1.0;" x1="663.5" x2="821.5" y1="620.6875" y2="620.6875"/><text fill="#000000" font-family="sans-serif" font-size="13" lengthAdjust="spacing" textLength="106" x="670.5" y="615.6216">Publish Message</text><polygon fill="#181818" points="959,645.8203,969,649.8203,959,653.8203,963,649.8203" style="stroke:#181818;stroke-width:1.0;"/><line style="stroke:#181818;stroke-width:1.0;" x1="827.5" x2="965" y1="649.8203" y2="649.8203"/><text fill="#000000" font-family="sans-serif" font-size="13" lengthAdjust="spacing" textLength="98" x="834.5" y="644.7544">Route Message</text><polygon fill="#181818" points="170,674.9531,160,678.9531,170,682.9531,166,678.9531" style="stroke:#181818;stroke-width:1.0;"/><line style="stroke:#181818;stroke-width:1.0;" x1="164" x2="970" y1="678.9531" y2="678.9531"/><text fill="#000000" font-family="sans-serif" font-size="13" lengthAdjust="spacing" textLength="110" x="176" y="673.8872">Receive Message</text><polygon fill="#181818" points="35,704.0859,25,708.0859,35,712.0859,31,708.0859" style="stroke:#181818;stroke-width:1.0;"/><line style="stroke:#181818;stroke-width:1.0;" x1="29" x2="158" y1="708.0859" y2="708.0859"/><text fill="#000000" font-family="sans-serif" font-size="13" lengthAdjust="spacing" textLength="111" x="41" y="703.02">Forward Message</text><!--SRC=[pP71JiCm38RlUGgB-rvW1mwK8JXCwZeGH-IcPerea-6wwnwVj6cwhcBYoYs9Fpl__nkrE8QtXbWTaSLeSqGhSFTA5HqOQtXmSWVOGExaciZI1DuTVn4FzMuuBX3CSoFR7Uo9JoF7mzlYCyQ2619d1OqTGHaULO62EJOqcxOvwnBjWGQCniiCdBJlMce39H_V_NaEXJzd28-CwjE0rNrl6TRmOeKOjQZ-wb-3KLz8YJyTrv1HxOGWPQUfQ9aWmQfI8-ORWX7Vi3zYPs5fDiuDmNXiqtYDbMdAdh6anJYhnY5_SceiUp0cuz642Nk9nAl1N4mGEYCbF6DJKk6Nf9b4JMszz129d_18kaBlRSZhck4Rq4ppJ4hQ1irRQXeyq8tlCjTwlP69xzDECj9aJXTWZ73mjeOdnnroCLKN2zsJBNnaTOssY9s_28p43Qz1OOIcmdpVKUK5YdbCoEPCUZxdtuJs0m00]--></g></svg>
